<?xml version="1.0" standalone="no"?>
<!DOCTYPE svg PUBLIC "-//W3C//DTD SVG 1.1//EN" "http://www.w3.org/Graphics/SVG/1.1/DTD/svg11.dtd">
<svg width="100%" height="100%" viewBox="0 0 2481 3508" version="1.1" xmlns="http://www.w3.org/2000/svg" xmlns:xlink="http://www.w3.org/1999/xlink" xml:space="preserve" style="fill-rule:evenodd;clip-rule:evenodd;stroke-linecap:round;stroke-linejoin:round;stroke-miterlimit:1.41421;">
    <g id="Title" transform="matrix(1,0,0,1,0,106.474)">
        <g id="Back" transform="matrix(1,0,0,16.3218,3.99699,-463.487)">
            <path d="M2247.82,135.857C1152.78,134.713 574.681,136.333 241.945,135.857C242.426,144.325 247.105,162.12 241.945,188.391C733.842,186.553 1170.06,192.875 2270.44,189.431C2253.7,173.046 2244.69,147.727 2247.82,135.857Z" style="fill:rgb(247,0,0);"/>
        </g>
        <g transform="matrix(5.68123,0,0,5.68123,-2817.65,-8635.75)">
            <text x="572.779px" y="1935.4px" style="font-family:'xkcd-Regular';font-size:35.204px;fill:white;">From beginner</text>
            <text x="572.779px" y="1970.6px" style="font-family:'xkcd-Regular';font-size:35.204px;fill:white;">to buddha</text>
        </g>
        <g transform="matrix(5.68123,0,0,5.68123,-2831.25,-8851.95)">
            <text x="572.779px" y="1935.4px" style="font-family:'xkcd-Regular';font-size:70.407px;fill:white;">haskell:</text>
        </g>
    </g>
    <g id="Secondary Title" transform="matrix(1,0,0,1,-451.066,129.466)">
        <text x="1691.22px" y="2732.33px" style="font-family:'xkcd-Regular';font-size:83.333px;fill:black;">an unexpected accident</text>
    </g>
    <g id="Author" transform="matrix(1,0,0,1,45.5174,400.941)">
        <text x="1611.21px" y="2732.33px" style="font-family:'Chalkboard';font-size:100px;fill:black;">$</text>
        <text x="1669.11px" y="2732.33px" style="font-family:'xkcd-Regular';font-size:100px;fill:black;">(hostname)</text>
    </g>
    <g id="SJTUG Logo" transform="matrix(1,0,0,1,0,106.474)">
        <g transform="matrix(1,0,0,1,0,26.6036)">
            <text x="247.345px" y="3009.53px" style="font-family:'CevicheOne-Regular';font-size:166.667px;fill:black;">S<tspan x="328.178px " y="3009.53px ">J</tspan>TUG</text>
        </g>
        <g transform="matrix(1,0,0,1,-30.7966,48.2274)">
            <text x="658.808px" y="2896.5px" style="font-family:'CevicheOne-Regular';font-size:75px;fill:black;">®</text>
        </g>
    </g>
    <g id="Top Text" transform="matrix(1,0,0,1,0,82.4006)">
        <g transform="matrix(1,0,0,1,12.6914,-52.2128)">
            <g transform="matrix(0.999803,0.0198496,-0.0198496,0.999803,8.18381,-14.0312)">
                <text x="710.899px" y="405.235px" style="font-family:'xkcd-Regular';font-size:83.333px;fill:black;">p</text>
            </g>
            <g transform="matrix(0.999725,0.0234541,-0.0234541,0.999725,9.73161,-17.5746)">
                <text x="754.084px" y="406.078px" style="font-family:'xkcd-Regular';font-size:83.333px;fill:black;">r</text>
            </g>
            <g transform="matrix(0.999575,0.0291427,-0.0291427,0.999575,12.2085,-23.2358)">
                <text x="803.247px" y="407.214px" style="font-family:'xkcd-Regular';font-size:83.333px;fill:black;">o</text>
            </g>
            <g transform="matrix(0.999964,0.00852792,-0.00852792,0.999964,3.51969,-7.26217)">
                <text x="853.32px" y="409.087px" style="font-family:'xkcd-Regular';font-size:83.333px;fill:black;">g</text>
            </g>
            <g transform="matrix(0.999946,-0.0103723,0.0103723,0.999946,-4.19765,9.47394)">
                <text x="911.267px" y="409.425px" style="font-family:'xkcd-Regular';font-size:83.333px;fill:black;">r</text>
            </g>
            <g transform="matrix(0.999886,-0.0151153,0.0151153,0.999886,-6.07091,14.5651)">
                <text x="960.506px" y="408.898px" style="font-family:'xkcd-Regular';font-size:83.333px;fill:black;">a</text>
            </g>
            <g transform="matrix(0.999879,-0.0155452,0.0155452,0.999879,-6.22088,15.82)">
                <text x="1014.51px" y="408.066px" style="font-family:'xkcd-Regular';font-size:83.333px;fill:black;">m</text>
            </g>
            <g transform="matrix(0.999916,-0.0129824,0.0129824,0.999916,-5.19646,13.9123)">
                <text x="1068.98px" y="407.208px" style="font-family:'xkcd-Regular';font-size:83.333px;fill:black;">m</text>
            </g>
            <g transform="matrix(0.999951,-0.0099256,0.0099256,0.999951,-3.97968,11.1712)">
                <text x="1123.48px" y="406.527px" style="font-family:'xkcd-Regular';font-size:83.333px;fill:black;">i</text>
            </g>
            <g transform="matrix(0.999981,-0.00618626,0.00618626,0.999981,-2.49182,7.06274)">
                <text x="1140.43px" y="406.327px" style="font-family:'xkcd-Regular';font-size:83.333px;fill:black;">n</text>
            </g>
            <g transform="matrix(0.999998,0.00195253,-0.00195253,0.999998,0.794996,-2.31954)">
                <text x="1188.36px" y="406.002px" style="font-family:'xkcd-Regular';font-size:83.333px;fill:black;">g</text>
            </g>
            <g transform="matrix(0.999811,0.0194603,-0.0194603,0.999811,8.14789,-24.582)">
                <text x="1267.14px" y="406.362px" style="font-family:'xkcd-Regular';font-size:83.333px;fill:black;">l</text>
            </g>
            <g transform="matrix(0.999247,0.0387893,-0.0387893,0.999247,16.7793,-50.5425)">
                <text x="1310.9px" y="407.142px" style="font-family:'xkcd-Regular';font-size:83.333px;fill:black;">a</text>
            </g>
            <g transform="matrix(0.997404,0.0720062,-0.0720062,0.997404,33.0083,-97.214)">
                <text x="1364.83px" y="409.207px" style="font-family:'xkcd-Regular';font-size:83.333px;fill:black;">n</text>
            </g>
            <g transform="matrix(0.997826,0.0659103,-0.0659103,0.997826,30.333,-92.2079)">
                <text x="1412.64px" y="413.613px" style="font-family:'xkcd-Regular';font-size:83.333px;fill:black;">g</text>
            </g>
            <g transform="matrix(0.999876,0.0157357,-0.0157357,0.999876,6.74545,-23.0885)">
                <text x="1470.55px" y="417.1px" style="font-family:'xkcd-Regular';font-size:83.333px;fill:black;">u</text>
            </g>
            <g transform="matrix(0.999984,-0.00559904,0.00559904,0.999984,-2.31585,8.52929)">
                <text x="1522.18px" y="417.877px" style="font-family:'xkcd-Regular';font-size:83.333px;fill:black;">a</text>
            </g>
            <g transform="matrix(0.999803,-0.0198483,0.0198483,0.999803,-7.97722,31.3666)">
                <text x="1576.17px" y="417.554px" style="font-family:'xkcd-Regular';font-size:83.333px;fill:black;">g</text>
            </g>
            <g transform="matrix(0.999544,-0.0301946,0.0301946,0.999544,-11.8271,49.5275)">
                <text x="1633.99px" y="416.37px" style="font-family:'xkcd-Regular';font-size:83.333px;fill:black;">e</text>
            </g>
            <g transform="matrix(0.999307,-0.037211,0.037211,0.999307,-14.2705,62.9475)">
                <text x="1683.92px" y="414.843px" style="font-family:'xkcd-Regular';font-size:83.333px;fill:black;">s</text>
            </g>
        </g>
        <g transform="matrix(1,0,0,1,10.4114,-130.974)">
            <g transform="matrix(0.997981,0.063514,-0.063514,0.997981,26.7391,-35.1905)">
                <text x="566.869px" y="402.975px" style="font-family:'xkcd-Regular';font-size:83.333px;fill:black;">L</text>
            </g>
            <g transform="matrix(0.996694,0.0812453,-0.0812453,0.996694,34.9961,-48.259)">
                <text x="610.508px" y="405.905px" style="font-family:'xkcd-Regular';font-size:83.333px;fill:black;">e</text>
            </g>
            <g transform="matrix(0.997022,0.0771141,-0.0771141,0.997022,33.5838,-49.6947)">
                <text x="660.263px" y="410.012px" style="font-family:'xkcd-Regular';font-size:83.333px;fill:black;">a</text>
            </g>
            <g transform="matrix(0.998006,0.0631264,-0.0631264,0.998006,27.572,-44.2542)">
                <text x="714.127px" y="414.212px" style="font-family:'xkcd-Regular';font-size:83.333px;fill:black;">d</text>
            </g>
            <g transform="matrix(0.999691,0.024849,-0.024849,0.999691,10.6453,-19.433)">
                <text x="787.245px" y="418.618px" style="font-family:'xkcd-Regular';font-size:83.333px;fill:black;">y</text>
            </g>
            <g transform="matrix(0.999523,-0.0308694,0.0308694,0.999523,-12.567,26.0961)">
                <text x="838.887px" y="420.055px" style="font-family:'xkcd-Regular';font-size:83.333px;fill:black;">o</text>
            </g>
            <g transform="matrix(0.993007,-0.118057,0.118057,0.993007,-43.11,107.877)">
                <text x="889.026px" y="417.825px" style="font-family:'xkcd-Regular';font-size:83.333px;fill:black;">u</text>
            </g>
            <g transform="matrix(0.999036,-0.043908,0.043908,0.999036,-17.1098,42.6018)">
                <text x="961.229px" y="410.788px" style="font-family:'xkcd-Regular';font-size:83.333px;fill:black;">o</text>
            </g>
            <g transform="matrix(0.999645,-0.0266434,0.0266434,0.999645,-10.5286,27.0882)">
                <text x="1011.25px" y="408.641px" style="font-family:'xkcd-Regular';font-size:83.333px;fill:black;">n</text>
            </g>
            <g transform="matrix(0.999928,-0.0120123,0.0120123,0.999928,-4.81088,13.0034)">
                <text x="1080.07px" y="406.985px" style="font-family:'xkcd-Regular';font-size:83.333px;fill:black;">a</text>
            </g>
            <g transform="matrix(0.999998,-0.00209875,0.00209875,0.999998,-0.849999,2.42476)">
                <text x="1154.91px" y="406.215px" style="font-family:'xkcd-Regular';font-size:83.333px;fill:black;">d</text>
            </g>
            <g transform="matrix(0.999999,0.00159647,-0.00159647,0.999999,0.649928,-1.92709)">
                <text x="1207.42px" y="406.139px" style="font-family:'xkcd-Regular';font-size:83.333px;fill:black;">i</text>
            </g>
            <g transform="matrix(0.999988,0.00480849,-0.00480849,0.999988,1.96708,-5.88205)">
                <text x="1224.24px" y="406.141px" style="font-family:'xkcd-Regular';font-size:83.333px;fill:black;">f</text>
            </g>
            <g transform="matrix(0.999961,0.00887534,-0.00887534,0.999961,3.65649,-11.2486)">
                <text x="1269.2px" y="406.35px" style="font-family:'xkcd-Regular';font-size:83.333px;fill:black;">f</text>
            </g>
            <g transform="matrix(0.999917,0.0128615,-0.0128615,0.999917,5.34004,-16.8718)">
                <text x="1314.42px" y="406.743px" style="font-family:'xkcd-Regular';font-size:83.333px;fill:black;">e</text>
            </g>
            <g transform="matrix(0.99985,0.0173005,-0.0173005,0.99985,7.25205,-23.5404)">
                <text x="1364.2px" y="407.379px" style="font-family:'xkcd-Regular';font-size:83.333px;fill:black;">r</text>
            </g>
            <g transform="matrix(0.999758,0.0219956,-0.0219956,0.999758,9.32119,-30.9935)">
                <text x="1413.57px" y="408.227px" style="font-family:'xkcd-Regular';font-size:83.333px;fill:black;">e</text>
            </g>
            <g transform="matrix(0.999614,0.0277708,-0.0277708,0.999614,11.9314,-40.48)">
                <text x="1463.33px" y="409.317px" style="font-family:'xkcd-Regular';font-size:83.333px;fill:black;">n</text>
            </g>
            <g transform="matrix(0.999314,0.0370252,-0.0370252,0.999314,16.2393,-55.676)">
                <text x="1511.34px" y="410.614px" style="font-family:'xkcd-Regular';font-size:83.333px;fill:black;">t</text>
            </g>
            <g transform="matrix(0.998099,0.0616325,-0.0616325,0.998099,28.5247,-96.9339)">
                <text x="1585.54px" y="413.912px" style="font-family:'xkcd-Regular';font-size:83.333px;fill:black;">t</text>
            </g>
            <g transform="matrix(0.999617,0.0276623,-0.0276623,0.999617,12.1654,-45.1764)">
                <text x="1638.91px" y="417.111px" style="font-family:'xkcd-Regular';font-size:83.333px;fill:black;">r</text>
            </g>
            <g transform="matrix(0.999901,0.0140891,-0.0140891,0.999901,6.06193,-23.7429)">
                <text x="1688.14px" y="418.363px" style="font-family:'xkcd-Regular';font-size:83.333px;fill:black;">i</text>
            </g>
            <g transform="matrix(0.999995,0.00305955,-0.00305955,0.999995,1.28893,-5.21443)">
                <text x="1704.96px" y="418.674px" style="font-family:'xkcd-Regular';font-size:83.333px;fill:black;">p</text>
            </g>
            <g transform="matrix(0.999857,-0.0169335,0.0169335,0.999857,-6.83668,30.012)">
                <text x="1768.81px" y="418.715px" style="font-family:'xkcd-Regular';font-size:83.333px;fill:black;">t</text>
            </g>
            <g transform="matrix(0.999427,-0.0338436,0.0338436,0.999427,-13.0967,61.9116)">
                <text x="1822.27px" y="417.822px" style="font-family:'xkcd-Regular';font-size:83.333px;fill:black;">o</text>
            </g>
        </g>
    </g>
    <g id="Book Graph" transform="matrix(1,0,0,1,0,106.474)">
        <g id="The Boy" transform="matrix(1,0,0,1,55.3755,13.6767)">
            <g id="Body" transform="matrix(0.904288,0,0,0.904288,13.3179,156.618)">
                <g transform="matrix(1.28202,0,0,1,-302.168,0)">
                    <path d="M946.405,663.678C950.506,663.869 982.102,665.779 985.968,666.318C1038.83,673.688 1054.53,726.805 1067.39,799.907C1083.76,892.925 1029.84,999.793 948.785,966.368C897.178,945.085 849.362,885.243 849.362,805.588C849.362,725.934 894.581,661.262 946.405,663.678Z" style="fill:none;stroke-width:12.02px;stroke:black;"/>
                </g>
                <path d="M912.283,970.858C900.589,1023.25 964.588,1328.06 986.276,1343.2" style="fill:none;stroke-width:13.82px;stroke:black;"/>
                <path d="M826.513,1343.2C826.513,1343.2 861.566,1084.74 910.868,970.858" style="fill:none;stroke-width:13.82px;stroke:black;"/>
                <path d="M848.446,1719.19C848.446,1719.19 911.693,1354.67 910.868,972.63" style="fill:none;stroke-width:13.82px;stroke:black;"/>
                <path d="M1001.07,1719.19C1001.07,1715.25 931.069,1494.53 900.551,1270.93" style="fill:none;stroke-width:13.82px;stroke:black;"/>
            </g>
            <path id="Speaking Indicator" d="M1023.92,903.196C1097.1,875.122 1089.66,784.383 1163.14,756.714" style="fill:none;stroke-width:12.5px;stroke:black;"/>
            <g transform="matrix(1,0,0,1,-69.7383,-8.58444)">
                <g transform="matrix(0.984221,-0.176944,0.176944,0.984221,-111.544,237.097)">
                    <text x="1273.61px" y="743.967px" style="font-family:'xkcd-Regular';font-size:66.667px;fill:black;">h</text>
                </g>
                <g transform="matrix(0.979449,-0.201694,0.201694,0.979449,-121.557,280.199)">
                    <text x="1314.17px" y="736.585px" style="font-family:'xkcd-Regular';font-size:66.667px;fill:black;">m</text>
                </g>
                <g transform="matrix(0.977238,-0.212146,0.212146,0.977238,-123.509,304.412)">
                    <text x="1356.83px" y="727.769px" style="font-family:'xkcd-Regular';font-size:66.667px;fill:black;">m</text>
                </g>
                <g transform="matrix(0.976243,-0.21668,0.21668,0.976243,-122.433,320.312)">
                    <text x="1399.5px" y="718.485px" style="font-family:'xkcd-Regular';font-size:66.667px;fill:black;">m</text>
                </g>
                <g transform="matrix(0.981372,-0.192117,0.192117,0.981372,-109.278,290.233)">
                    <text x="1442px" y="708.627px" style="font-family:'xkcd-Regular';font-size:66.667px;fill:black;">m</text>
                </g>
                <g transform="matrix(0.98981,-0.142393,0.142393,0.98981,-84.6429,218.568)">
                    <text x="1484.82px" y="700.687px" style="font-family:'xkcd-Regular';font-size:66.667px;fill:black;">m</text>
                </g>
                <g transform="matrix(0.991636,-0.129068,0.129068,0.991636,-76.8581,203.022)">
                    <text x="1527.97px" y="694.506px" style="font-family:'xkcd-Regular';font-size:66.667px;fill:black;">m</text>
                </g>
                <g transform="matrix(0.99297,-0.11837,0.11837,0.99297,-70.497,190.826)">
                    <text x="1571.2px" y="688.883px" style="font-family:'xkcd-Regular';font-size:66.667px;fill:black;">m</text>
                </g>
                <g transform="matrix(0.994374,-0.105924,0.105924,0.994374,-63.3393,174.856)">
                    <text x="1614.46px" y="683.715px" style="font-family:'xkcd-Regular';font-size:66.667px;fill:black;">m</text>
                </g>
                <g transform="matrix(0.99551,-0.0946572,0.0946572,0.99551,-56.8446,159.98)">
                    <text x="1657.88px" y="679.172px" style="font-family:'xkcd-Regular';font-size:66.667px;fill:black;">.</text>
                </g>
                <g transform="matrix(0.996086,-0.0883919,0.0883919,0.996086,-53.4009,150.223)">
                    <text x="1669.49px" y="678.067px" style="font-family:'xkcd-Regular';font-size:66.667px;fill:black;">.</text>
                </g>
                <g transform="matrix(0.996748,-0.0805879,0.0805879,0.996748,-49.094,137.67)">
                    <text x="1680.99px" y="677.043px" style="font-family:'xkcd-Regular';font-size:66.667px;fill:black;">.</text>
                </g>
            </g>
            <g transform="matrix(1,0,0,1,-56.6547,58.1655)">
                <g transform="matrix(0.973611,-0.228213,0.228213,0.973611,-134.96,309.882)">
                    <text x="1272.47px" y="738.514px" style="font-family:'xkcd-Regular';font-size:66.667px;fill:black;">W</text>
                </g>
                <g transform="matrix(0.979504,-0.201422,0.201422,0.979504,-119.29,281.373)">
                    <text x="1322.97px" y="726.858px" style="font-family:'xkcd-Regular';font-size:66.667px;fill:black;">h</text>
                </g>
                <g transform="matrix(0.98194,-0.189193,0.189193,0.98194,-111.33,270.908)">
                    <text x="1363.32px" y="718.584px" style="font-family:'xkcd-Regular';font-size:66.667px;fill:black;">e</text>
                </g>
                <g transform="matrix(0.983571,-0.18052,0.18052,0.983571,-105.315,264.858)">
                    <text x="1402.49px" y="711.039px" style="font-family:'xkcd-Regular';font-size:66.667px;fill:black;">r</text>
                </g>
                <g transform="matrix(0.984843,-0.173447,0.173447,0.984843,-100.25,260.643)">
                    <text x="1441.21px" y="703.928px" style="font-family:'xkcd-Regular';font-size:66.667px;fill:black;">e</text>
                </g>
                <g transform="matrix(0.986169,-0.165744,0.165744,0.986169,-94.3557,257.728)">
                    <text x="1497.05px" y="694.212px" style="font-family:'xkcd-Regular';font-size:66.667px;fill:black;">i</text>
                </g>
                <g transform="matrix(0.986907,-0.161292,0.161292,0.986907,-91.8344,252.654)">
                    <text x="1510.27px" y="691.967px" style="font-family:'xkcd-Regular';font-size:66.667px;fill:black;">s</text>
                </g>
                <g transform="matrix(0.989235,-0.146336,0.146336,0.989235,-83.2741,235.695)">
                    <text x="1560.33px" y="683.844px" style="font-family:'xkcd-Regular';font-size:66.667px;fill:black;">t</text>
                </g>
                <g transform="matrix(0.983889,-0.178782,0.178782,0.983889,-95.4628,297.454)">
                    <text x="1602.65px" y="678.388px" style="font-family:'xkcd-Regular';font-size:66.667px;fill:black;">h</text>
                </g>
                <g transform="matrix(0.975156,-0.221517,0.221517,0.975156,-107.757,380.659)">
                    <text x="1643.19px" y="670.735px" style="font-family:'xkcd-Regular';font-size:66.667px;fill:black;">e</text>
                </g>
                <g transform="matrix(0.970872,-0.239599,0.239599,0.970872,-108.181,426.096)">
                    <text x="1698.38px" y="657.983px" style="font-family:'xkcd-Regular';font-size:66.667px;fill:black;">f</text>
                </g>
                <g transform="matrix(0.968674,-0.248337,0.248337,0.968674,-106.958,450.811)">
                    <text x="1733.41px" y="649.356px" style="font-family:'xkcd-Regular';font-size:66.667px;fill:black;">r</text>
                </g>
                <g transform="matrix(0.966412,-0.256998,0.256998,0.966412,-104.876,476.751)">
                    <text x="1771.48px" y="639.602px" style="font-family:'xkcd-Regular';font-size:66.667px;fill:black;">o</text>
                </g>
                <g transform="matrix(0.963539,-0.267567,0.267567,0.963539,-102.378,507.311)">
                    <text x="1810.27px" y="629.306px" style="font-family:'xkcd-Regular';font-size:66.667px;fill:black;">g</text>
                </g>
                <g transform="matrix(0.960193,-0.279337,0.279337,0.960193,-98.4642,542.722)">
                    <text x="1854.99px" y="616.838px" style="font-family:'xkcd-Regular';font-size:66.667px;fill:black;">?</text>
                </g>
            </g>
        </g>
        <g id="The Glasses" transform="matrix(0.704266,0,0,0.704266,515.892,548.804)">
            <path d="M1423.38,1591.59C1429.56,1648.77 1528.46,1690.01 1528,1570.02C1496.62,1554.75 1471.21,1546.4 1423.11,1565.02C1423.11,1565.02 1422.57,1584.09 1423.38,1591.59Z" style="fill:none;stroke-width:17.75px;stroke:black;"/>
            <g transform="matrix(-0.996318,-0.085734,-0.085734,0.996318,3221.4,138.527)">
                <path d="M1417.05,1592.6C1423.23,1649.78 1528.46,1690.01 1528,1570.02C1492.89,1546.61 1457.52,1547.58 1416.79,1566.03C1416.79,1566.03 1416.24,1585.1 1417.05,1592.6Z" style="fill:none;stroke-width:17.75px;stroke:black;"/>
            </g>
            <path d="M1531.11,1590.09C1538.64,1587.32 1553.86,1588.77 1560.91,1591.59" style="fill:none;stroke-width:17.75px;stroke:black;"/>
            <path d="M1423.91,1570.28C1419.06,1548.16 1411.17,1515.71 1407.61,1501.45C1406.09,1495.39 1394.79,1509.27 1391.03,1524.38" style="fill:none;stroke-width:17.75px;stroke:black;"/>
            <path d="M1675.57,1577.25C1674.79,1560.04 1687.02,1500.33 1688.53,1501.46C1696.44,1507.4 1701.7,1517.78 1704.03,1520.1" style="fill:none;stroke-width:17.75px;stroke:black;"/>
            <g transform="matrix(1.13512,0,0,1.13512,-203.886,-298.024)">
                <path d="M1243.28,1657.23C1266.51,1660.9 1290.07,1664.31 1313.52,1666.51C1315.52,1666.7 1327.23,1667.29 1327.23,1665.24" style="fill:none;stroke-width:15.64px;stroke:black;"/>
            </g>
            <g transform="matrix(0.687015,0,0,0.799464,413.021,217.076)">
                <path d="M1294.95,1466.39C1311.63,1487.71 1330.98,1504.3 1354.2,1518.06C1357.72,1520.15 1381.89,1533.49 1381.89,1537.79" style="fill:none;stroke-width:23.81px;stroke:black;"/>
            </g>
            <g transform="matrix(0.67598,0,0,0.706422,512.568,364.016)">
                <path d="M1575.55,1365.02C1570.76,1396.99 1562.58,1428.47 1558.3,1460.53C1557.83,1464.03 1554.14,1491.92 1555.65,1491.92" style="fill:none;stroke-width:25.67px;stroke:black;"/>
            </g>
            <g transform="matrix(1.13512,0,0,1.13512,-326.172,-276.816)">
                <path d="M1897.87,1497.66C1890.6,1504.87 1854.7,1538.67 1844.43,1538.67" style="fill:none;stroke-width:15.64px;stroke:black;"/>
            </g>
            <g transform="matrix(1.03162,0,0,-1.1695e-13,-101.756,1593.91)">
                <path d="M1937.28,1667.67C1905.34,1667.67 1873.02,1669.88 1841.34,1669.88" style="fill:none;stroke-width:24.33px;stroke:black;"/>
            </g>
        </g>
    </g>
</svg>
